<svg width="34" height="46" viewBox="0 0 34 46" fill="none" xmlns="http://www.w3.org/2000/svg">
<path d="M33.3461 16.4286C33.3461 12.0714 31.624 7.89277 28.5585 4.81182C25.493 1.73086 21.3353 3.28954e-07 17 0C12.6647 -3.28954e-07 8.50702 1.73086 5.44152 4.81182C2.37602 7.89277 0.65384 12.0714 0.653839 16.4286H10.0857C10.0857 14.5855 10.8142 12.818 12.1108 11.5148C13.4075 10.2115 15.1662 9.4794 17 9.4794C18.8338 9.4794 20.5925 10.2115 21.8892 11.5148C23.1858 12.818 23.9143 14.5855 23.9143 16.4286H33.3461Z" fill="white"/>
<path d="M33.3461 16.4286C33.3461 20.7857 31.624 24.9644 28.5585 28.0454C25.493 31.1263 21.3353 32.8572 17 32.8572C12.6647 32.8572 8.50702 31.1263 5.44152 28.0454C2.37602 24.9644 0.65384 20.7857 0.653839 16.4286H10.0857C10.0857 18.2716 10.8142 20.0392 12.1108 21.3424C13.4075 22.6456 15.1662 23.3778 17 23.3778C18.8338 23.3778 20.5925 22.6456 21.8892 21.3424C23.1858 20.0392 23.9143 18.2716 23.9143 16.4286H33.3461Z" fill="white"/>
<path d="M15.3226 43.417C16.1112 44.6313 17.8888 44.6313 18.6774 43.417L29.7163 26.4178C30.5804 25.0873 29.6255 23.3286 28.039 23.3286H5.96103C4.37455 23.3286 3.41963 25.0873 4.28367 26.4178L15.3226 43.417Z" fill="white"/>
</svg>
