<svg width="93" height="84" viewBox="0 0 93 84" fill="none" xmlns="http://www.w3.org/2000/svg">
<path fill-rule="evenodd" clip-rule="evenodd" d="M29.986 79.972C44.8899 79.972 56.972 67.8899 56.972 52.986C56.972 38.082 44.8899 26 29.986 26C15.082 26 3 38.082 3 52.986C3 67.8899 15.082 79.972 29.986 79.972ZM29.986 82.972C46.5468 82.972 59.972 69.5468 59.972 52.986C59.972 36.4252 46.5468 23 29.986 23C13.4252 23 0 36.4252 0 52.986C0 69.5468 13.4252 82.972 29.986 82.972ZM44.8059 64.2868C38.8047 72.7116 27.11 74.6763 18.6852 68.6751C10.2604 62.6738 8.29566 50.9792 14.2969 42.5544C14.2969 42.5544 14.2969 42.5543 14.2969 42.5543L11.8535 40.8138C11.8535 40.8138 11.8534 40.8138 11.8534 40.8138C4.89092 50.5881 7.17033 64.156 16.9446 71.1185C26.719 78.0811 40.2868 75.8016 47.2494 66.0273C54.2119 56.253 51.9325 42.6851 42.1582 35.7226C33.7853 29.7584 22.6289 30.5758 15.2252 37.0767L17.7475 38.8734C24.122 33.695 33.4032 33.1695 40.4176 38.1661C48.8424 44.1673 50.8071 55.862 44.8059 64.2868ZM63.014 80.8411C77.918 80.8411 90 68.7591 90 53.8551C90 38.9512 77.918 26.8692 63.014 26.8692C48.1101 26.8692 36.028 38.9512 36.028 53.8551C36.028 68.7591 48.1101 80.8411 63.014 80.8411ZM63.014 83.8411C79.5748 83.8411 93 70.4159 93 53.8551C93 37.2943 79.5748 23.8692 63.014 23.8692C46.4532 23.8692 33.028 37.2943 33.028 53.8551C33.028 70.4159 46.4532 83.8411 63.014 83.8411ZM44.4626 49.5403C47.0857 39.5347 57.3232 33.5499 67.3288 36.173C77.3344 38.796 83.3192 49.0335 80.6962 59.0391C80.6962 59.0391 80.6962 59.0391 80.6962 59.0391L83.5981 59.7999C83.5981 59.7999 83.5981 59.7999 83.5981 59.7999C86.6413 48.1916 79.6979 36.3142 68.0896 33.271C56.4812 30.2278 44.6039 37.1713 41.5607 48.7796C38.5175 60.3879 45.461 72.2653 57.0693 75.3085C67.0131 77.9153 77.1544 73.194 81.7711 64.4899L78.7755 63.7046C74.652 70.8073 66.1607 74.5904 57.83 72.4065C47.8244 69.7835 41.8396 59.546 44.4626 49.5403Z" fill="#B09D59"/>
<path d="M43.0541 3.40992L43.4388 3.74184C45.5777 5.58743 48.7662 5.5153 50.8195 3.57488C52.9424 1.56869 56.2622 1.56869 58.3851 3.57488L58.5417 3.72288C60.5471 5.61807 60.9188 8.67261 59.4264 10.9934L56.6582 15.2983C52.1414 22.3226 41.9488 22.5373 37.1401 15.7095L34.1565 11.4731C32.3652 8.92962 32.7951 5.44224 35.1504 3.40992C37.4208 1.45088 40.7837 1.45088 43.0541 3.40992Z" stroke="#B09D59" stroke-width="3"/>
</svg>
